<svg width="169" height="34" viewBox="0 0 169 34" fill="none" xmlns="http://www.w3.org/2000/svg">
<path d="M38.5845 15.1565V2.56255H43.6238C44.522 2.56255 45.2481 2.74329 45.8022 3.10479C46.3563 3.46045 46.7617 3.9094 47.0183 4.45164C47.2749 4.99388 47.4032 5.54195 47.4032 6.09585C47.4032 6.80135 47.2428 7.38732 46.9221 7.85376C46.6071 8.32021 46.1726 8.63214 45.6185 8.78956V8.35227C46.4059 8.51553 46.995 8.87994 47.3857 9.4455C47.7824 10.0111 47.9807 10.6437 47.9807 11.3433C47.9807 12.0955 47.8407 12.7572 47.5607 13.3286C47.2866 13.9 46.8666 14.349 46.3009 14.6755C45.7351 14.9962 45.0236 15.1565 44.1662 15.1565H38.5845ZM40.9991 12.9176H43.9212C44.242 12.9176 44.5278 12.8505 44.7786 12.7164C45.0294 12.5765 45.2248 12.3841 45.3648 12.1392C45.5106 11.8885 45.5835 11.5941 45.5835 11.2559C45.5835 10.9585 45.5223 10.6932 45.3998 10.46C45.2773 10.2268 45.0906 10.0431 44.8398 9.90903C44.5949 9.7691 44.2887 9.69913 43.9212 9.69913H40.9991V12.9176ZM40.9991 7.47769H43.5888C43.8571 7.47769 44.0962 7.43105 44.3062 7.33776C44.5161 7.24447 44.6824 7.10162 44.8049 6.90921C44.9273 6.71098 44.9886 6.45735 44.9886 6.14833C44.9886 5.76351 44.869 5.43992 44.6299 5.17754C44.3907 4.91517 44.0437 4.78398 43.5888 4.78398H40.9991V7.47769Z" fill="#212137"/>
<path d="M54.8523 15.4189C53.8374 15.4189 52.945 15.2148 52.1751 14.8067C51.4053 14.3927 50.8045 13.8126 50.3729 13.0663C49.9413 12.32 49.7255 11.4425 49.7255 10.4338V2.58004L52.1402 2.56255V10.4163C52.1402 10.8303 52.2101 11.2063 52.3501 11.5445C52.4901 11.8827 52.6826 12.1742 52.9275 12.4191C53.1783 12.664 53.4671 12.8535 53.7937 12.9876C54.1261 13.1158 54.479 13.18 54.8523 13.18C55.2372 13.18 55.593 13.1129 55.9196 12.9788C56.2521 12.8447 56.5408 12.6552 56.7858 12.4103C57.0307 12.1654 57.2203 11.8739 57.3544 11.5358C57.4944 11.1976 57.5644 10.8244 57.5644 10.4163V2.56255H59.9791V10.4338C59.9791 11.4425 59.7633 12.32 59.3316 13.0663C58.9 13.8126 58.2993 14.3927 57.5294 14.8067C56.7595 15.2148 55.8671 15.4189 54.8523 15.4189Z" fill="#212137"/>
<path d="M67.6707 15.4189C66.8775 15.4189 66.1222 15.279 65.4048 14.9991C64.6874 14.7134 64.0517 14.2936 63.4976 13.7397C62.9493 13.1858 62.5148 12.5007 62.194 11.6844C61.879 10.8682 61.7216 9.92652 61.7216 8.85953C61.7216 7.46603 61.9869 6.28243 62.5177 5.30873C63.0543 4.3292 63.7717 3.58289 64.6699 3.0698C65.5739 2.55671 66.5742 2.30017 67.6707 2.30017C69.2922 2.30017 70.5666 2.67624 71.4939 3.42838C72.4213 4.18052 73.0425 5.24459 73.3574 6.6206L70.9253 6.97043C70.6978 6.23579 70.3245 5.64982 69.8054 5.21253C69.2922 4.76941 68.6331 4.54493 67.8282 4.5391C67.0292 4.52744 66.3642 4.69944 65.8335 5.0551C65.3027 5.41076 64.9032 5.91511 64.6349 6.56813C64.3724 7.22115 64.2412 7.98495 64.2412 8.85953C64.2412 9.73411 64.3724 10.4921 64.6349 11.1334C64.9032 11.7748 65.3027 12.2733 65.8335 12.629C66.3642 12.9846 67.0292 13.1683 67.8282 13.18C68.3706 13.1916 68.8606 13.0983 69.298 12.9001C69.7413 12.7019 70.1146 12.3899 70.4178 11.9643C70.7211 11.5387 70.9369 10.9935 71.0653 10.3288H69.0705V8.49221H73.6024C73.6141 8.568 73.6228 8.70211 73.6286 8.89451C73.6345 9.08692 73.6374 9.1977 73.6374 9.22686C73.6374 10.4338 73.3924 11.5037 72.9025 12.4366C72.4126 13.3695 71.7214 14.1012 70.829 14.6318C69.9367 15.1565 68.8839 15.4189 67.6707 15.4189Z" fill="#212137"/>
<path d="M74.1742 15.1565L78.0237 2.56255H81.5757L85.4251 15.1565H82.9755L79.546 4.04933H80.0009L76.6239 15.1565H74.1742ZM76.4839 12.5328V10.3113H83.133V12.5328H76.4839Z" fill="#212137"/>
<path d="M92.0582 15.4189C90.7984 15.4189 89.7106 15.1449 88.7949 14.5968C87.885 14.0487 87.1822 13.282 86.6865 12.2966C86.1965 11.3113 85.9516 10.1656 85.9516 8.85953C85.9516 7.55349 86.1965 6.40779 86.6865 5.42243C87.1822 4.43706 87.885 3.67035 88.7949 3.12228C89.7106 2.57421 90.7984 2.30017 92.0582 2.30017C93.5047 2.30017 94.7178 2.65875 95.6977 3.37591C96.6834 4.09306 97.3775 5.06385 97.7799 6.28826L95.3827 6.95294C95.1494 6.18914 94.7557 5.59734 94.2017 5.17754C93.6476 4.75191 92.9331 4.5391 92.0582 4.5391C91.2592 4.5391 90.5913 4.71693 90.0547 5.07259C89.524 5.42826 89.1245 5.92968 88.8562 6.57687C88.5879 7.22406 88.4537 7.98495 88.4537 8.85953C88.4537 9.73411 88.5879 10.495 88.8562 11.1422C89.1245 11.7894 89.524 12.2908 90.0547 12.6465C90.5913 13.0021 91.2592 13.18 92.0582 13.18C92.9331 13.18 93.6476 12.9671 94.2017 12.5415C94.7557 12.1159 95.1494 11.5241 95.3827 10.7661L97.7799 11.4308C97.3775 12.6552 96.6834 13.626 95.6977 14.3432C94.7178 15.0603 93.5047 15.4189 92.0582 15.4189Z" fill="#212137"/>
<path d="M99.7063 15.1565V2.56255H102.086V7.74007H107.72V2.56255H110.1V15.1565H107.72V9.9615H102.086V15.1565H99.7063Z" fill="#212137"/>
<path d="M112.731 15.1565V2.56255H115.111V15.1565H112.731Z" fill="#212137"/>
<path d="M117.734 15.1565V2.56255H125.957V4.78398H120.113V7.47769H124.908V9.69913H120.113V12.9351H125.957V15.1565H117.734Z" fill="#212137"/>
<path d="M130.766 15.1565L126.917 2.56255H129.367L132.516 12.9176L135.718 2.56255H138.168L134.318 15.1565H130.766Z" fill="#212137"/>
<path d="M139.453 15.1565V13.3944H141.216V15.1565H139.453Z" fill="#212137"/>
<path d="M146.405 15.3509C145.679 15.3509 145.057 15.1889 144.538 14.865C144.02 14.5411 143.622 14.1005 143.346 13.5434C143.069 12.9863 142.931 12.3579 142.931 11.6582C142.931 10.9499 143.074 10.3172 143.359 9.76003C143.648 9.20289 144.054 8.76451 144.577 8.44491C145.1 8.12531 145.718 7.96551 146.431 7.96551C147.256 7.96551 147.947 8.17498 148.504 8.59392C149.066 9.00853 149.425 9.57647 149.58 10.2977L147.817 10.7642C147.714 10.4014 147.532 10.1185 147.273 9.91551C147.018 9.71252 146.729 9.61102 146.405 9.61102C146.033 9.61102 145.729 9.70172 145.491 9.88312C145.253 10.0602 145.078 10.3042 144.966 10.6152C144.854 10.9218 144.797 11.2695 144.797 11.6582C144.797 12.2672 144.931 12.7617 145.199 13.1417C145.471 13.5175 145.873 13.7054 146.405 13.7054C146.802 13.7054 147.105 13.6147 147.312 13.4333C147.519 13.2519 147.675 12.9927 147.779 12.6559L149.58 13.0316C149.381 13.7745 149.006 14.3467 148.453 14.7484C147.9 15.15 147.217 15.3509 146.405 15.3509Z" fill="#212137"/>
<path d="M153.836 15.3509C153.132 15.3509 152.514 15.1932 151.983 14.8779C151.451 14.5627 151.036 14.1286 150.738 13.5758C150.445 13.0187 150.298 12.3795 150.298 11.6582C150.298 10.9283 150.449 10.2869 150.751 9.73411C151.054 9.17697 151.471 8.74292 152.002 8.43196C152.533 8.121 153.145 7.96551 153.836 7.96551C154.54 7.96551 155.158 8.12316 155.69 8.43844C156.225 8.75372 156.642 9.18993 156.94 9.74707C157.238 10.2999 157.387 10.9369 157.387 11.6582C157.387 12.3838 157.236 13.0251 156.934 13.5823C156.636 14.1351 156.219 14.5691 155.683 14.8844C155.152 15.1954 154.536 15.3509 153.836 15.3509ZM153.836 13.7054C154.402 13.7054 154.823 13.5153 155.1 13.1353C155.381 12.7509 155.521 12.2585 155.521 11.6582C155.521 11.0363 155.378 10.5396 155.093 10.1682C154.812 9.79674 154.393 9.61102 153.836 9.61102C153.452 9.61102 153.136 9.6974 152.89 9.87016C152.644 10.0429 152.46 10.2826 152.339 10.5893C152.222 10.8959 152.164 11.2522 152.164 11.6582C152.164 12.2844 152.305 12.7833 152.585 13.1547C152.87 13.5218 153.287 13.7054 153.836 13.7054Z" fill="#212137"/>
<path d="M167.237 15.1565V11.0233C167.237 10.5612 167.127 10.2027 166.907 9.9479C166.691 9.68876 166.39 9.5592 166.006 9.5592C165.76 9.5592 165.546 9.6175 165.364 9.73411C165.183 9.8464 165.04 10.0062 164.937 10.2135C164.837 10.4165 164.788 10.6519 164.788 10.9197L164.049 10.4273C164.049 9.9479 164.161 9.52465 164.386 9.15754C164.615 8.79043 164.919 8.50538 165.3 8.30239C165.684 8.09508 166.11 7.99143 166.576 7.99143C167.376 7.99143 167.978 8.22897 168.384 8.70405C168.795 9.17481 169 9.79242 169 10.5569V15.1565H167.237ZM158.8 15.1565V8.15987H160.355V10.4791H160.575V15.1565H158.8ZM163.025 15.1565V11.0233C163.025 10.5612 162.915 10.2027 162.694 9.9479C162.478 9.68876 162.178 9.5592 161.794 9.5592C161.426 9.5592 161.13 9.6866 160.906 9.94142C160.685 10.1919 160.575 10.518 160.575 10.9197L159.836 10.4014C159.836 9.94358 159.951 9.53328 160.18 9.17049C160.409 8.8077 160.716 8.5205 161.1 8.30887C161.489 8.09724 161.923 7.99143 162.403 7.99143C162.951 7.99143 163.401 8.10804 163.751 8.34126C164.105 8.57448 164.366 8.88545 164.535 9.27415C164.703 9.66285 164.788 10.0904 164.788 10.5569V15.1565H163.025Z" fill="#212137"/>
<path d="M39 30.524V23H39.7026L42.6482 29.3275L45.5782 23H46.2912V30.5187H45.5626V24.7138L42.8928 30.524H42.3984L39.7338 24.7138V30.524H39Z" fill="#212137"/>
<path d="M49.3598 30.6807C48.9366 30.6807 48.5809 30.6041 48.293 30.4508C48.0085 30.2976 47.7951 30.0938 47.6528 29.8395C47.5106 29.5852 47.4395 29.3083 47.4395 29.0087C47.4395 28.7022 47.5002 28.4409 47.6216 28.225C47.7465 28.0055 47.9148 27.8261 48.1264 27.6868C48.3415 27.5475 48.5896 27.4412 48.8706 27.3681C49.1551 27.2984 49.4691 27.2375 49.8126 27.1852C50.1596 27.1295 50.4978 27.0825 50.8275 27.0441C51.1605 27.0023 51.452 26.9623 51.7018 26.924L51.4311 27.0912C51.4416 26.5338 51.334 26.1211 51.1085 25.8528C50.883 25.5846 50.4909 25.4505 49.9323 25.4505C49.5472 25.4505 49.2211 25.5376 48.9539 25.7118C48.6902 25.8859 48.5046 26.1611 48.3971 26.5373L47.6528 26.3179C47.7812 25.8128 48.0397 25.4209 48.4283 25.1422C48.8169 24.8636 49.3217 24.7242 49.9427 24.7242C50.4562 24.7242 50.8916 24.8218 51.249 25.0168C51.6098 25.2084 51.8648 25.4871 52.014 25.8528C52.0834 26.0166 52.1285 26.1994 52.1493 26.4015C52.1702 26.6035 52.1806 26.809 52.1806 27.018V30.524H51.4988V29.108L51.6966 29.1916C51.5057 29.6758 51.2091 30.045 50.8066 30.2993C50.4042 30.5536 49.9219 30.6807 49.3598 30.6807ZM49.4483 30.0171C49.8057 30.0171 50.1179 29.9527 50.3851 29.8238C50.6522 29.6949 50.8674 29.519 51.0304 29.2961C51.1935 29.0697 51.2993 28.8154 51.3479 28.5333C51.3895 28.3521 51.4121 28.1536 51.4155 27.9376C51.419 27.7182 51.4207 27.5544 51.4207 27.4465L51.7122 27.598C51.452 27.6328 51.1692 27.6677 50.8639 27.7025C50.562 27.7373 50.2637 27.7774 49.9687 27.8227C49.6773 27.8679 49.4136 27.9219 49.1777 27.9846C49.0181 28.0299 48.8637 28.0944 48.7145 28.178C48.5653 28.2581 48.4422 28.3661 48.345 28.5019C48.2513 28.6378 48.2045 28.8067 48.2045 29.0087C48.2045 29.1724 48.2444 29.3309 48.3242 29.4842C48.4075 29.6375 48.5393 29.7646 48.7197 29.8656C48.9036 29.9666 49.1465 30.0171 49.4483 30.0171Z" fill="#212137"/>
<path d="M56.0595 30.6807C55.5425 30.6807 55.1053 30.5501 54.748 30.2888C54.3906 30.0241 54.12 29.6671 53.9361 29.2177C53.7522 28.7649 53.6603 28.2581 53.6603 27.6973C53.6603 27.126 53.7522 26.6174 53.9361 26.1716C54.1235 25.7222 54.3976 25.3687 54.7584 25.1109C55.1192 24.8531 55.5633 24.7242 56.0907 24.7242C56.6042 24.7242 57.0448 24.8549 57.4126 25.1161C57.7803 25.3774 58.0614 25.7327 58.2557 26.182C58.4534 26.6314 58.5523 27.1364 58.5523 27.6973C58.5523 28.2616 58.4534 28.7684 58.2557 29.2177C58.0579 29.6671 57.7734 30.0241 57.4022 30.2888C57.0309 30.5501 56.5834 30.6807 56.0595 30.6807ZM53.5302 33.032V24.881H54.2171V29.1289H54.3004V33.032H53.5302ZM55.9814 29.9649C56.3735 29.9649 56.6996 29.8656 56.9598 29.6671C57.22 29.4685 57.4143 29.1986 57.5427 28.8572C57.6745 28.5124 57.7404 28.1257 57.7404 27.6973C57.7404 27.2723 57.6763 26.8891 57.5479 26.5478C57.4195 26.2064 57.2235 25.9364 56.9598 25.7379C56.6996 25.5393 56.3682 25.4401 55.9658 25.4401C55.5737 25.4401 55.2476 25.5359 54.9874 25.7274C54.7306 25.919 54.5381 26.1855 54.4097 26.5269C54.2813 26.8647 54.2171 27.2549 54.2171 27.6973C54.2171 28.1327 54.2813 28.5228 54.4097 28.8677C54.5381 29.209 54.7324 29.4772 54.9926 29.6723C55.2528 29.8674 55.5824 29.9649 55.9814 29.9649Z" fill="#212137"/>
<path d="M59.6899 30.524L59.6951 24.881H60.4654V27.598L62.9738 24.881H63.9939L61.3605 27.7025L64.3374 30.524H63.2236L60.4654 27.807V30.524H59.6899Z" fill="#212137"/>
<path d="M67.0338 30.6807C66.4856 30.6807 66.0103 30.5588 65.6078 30.315C65.2089 30.0711 64.8983 29.728 64.6763 29.2857C64.4542 28.8433 64.3432 28.3243 64.3432 27.7286C64.3432 27.1121 64.4525 26.5791 64.6711 26.1298C64.8897 25.6804 65.1967 25.3338 65.5922 25.09C65.9912 24.8462 66.4613 24.7242 67.0026 24.7242C67.5577 24.7242 68.0313 24.8531 68.4234 25.1109C68.8154 25.3652 69.1121 25.7309 69.3133 26.2081C69.5145 26.6854 69.6065 27.2549 69.5891 27.9167H68.8085V27.645C68.7946 26.9135 68.6367 26.3614 68.3349 25.9887C68.0365 25.616 67.5993 25.4296 67.0234 25.4296C66.4197 25.4296 65.9565 25.6264 65.6339 26.02C65.3147 26.4137 65.1551 26.9745 65.1551 27.7025C65.1551 28.4131 65.3147 28.9652 65.6339 29.3588C65.9565 29.7489 66.4128 29.944 67.0026 29.944C67.4051 29.944 67.7555 29.8517 68.0539 29.6671C68.3557 29.479 68.5934 29.209 68.7668 28.8572L69.4798 29.1341C69.2578 29.6253 68.9299 30.0067 68.4962 30.2784C68.066 30.5466 67.5785 30.6807 67.0338 30.6807ZM64.8845 27.9167V27.274H69.178V27.9167H64.8845Z" fill="#212137"/>
<path d="M72.1978 30.524V25.5916H70.2045V24.881H74.956V25.5916H72.9628V30.524H72.1978Z" fill="#212137"/>
<path d="M78.0321 30.524V23H78.7971V26.391H82.9397V23H83.6995V30.524H82.9397V27.1277H78.7971V30.524H78.0321Z" fill="#212137"/>
<path d="M87.5358 30.6807C86.9876 30.6807 86.5123 30.5588 86.1098 30.315C85.7109 30.0711 85.4003 29.728 85.1783 29.2857C84.9562 28.8433 84.8452 28.3243 84.8452 27.7286C84.8452 27.1121 84.9545 26.5791 85.1731 26.1298C85.3917 25.6804 85.6987 25.3338 86.0942 25.09C86.4932 24.8462 86.9633 24.7242 87.5046 24.7242C88.0597 24.7242 88.5333 24.8531 88.9254 25.1109C89.3174 25.3652 89.6141 25.7309 89.8153 26.2081C90.0165 26.6854 90.1085 27.2549 90.0911 27.9167H89.3105V27.645C89.2966 26.9135 89.1387 26.3614 88.8369 25.9887C88.5385 25.616 88.1014 25.4296 87.5254 25.4296C86.9217 25.4296 86.4585 25.6264 86.1359 26.02C85.8167 26.4137 85.6571 26.9745 85.6571 27.7025C85.6571 28.4131 85.8167 28.9652 86.1359 29.3588C86.4585 29.7489 86.9148 29.944 87.5046 29.944C87.9071 29.944 88.2575 29.8517 88.5559 29.6671C88.8577 29.479 89.0954 29.209 89.2688 28.8572L89.9818 29.1341C89.7598 29.6253 89.4319 30.0067 88.9982 30.2784C88.568 30.5466 88.0805 30.6807 87.5358 30.6807ZM85.3865 27.9167V27.274H89.68V27.9167H85.3865Z" fill="#212137"/>
<path d="M90.8297 31.778V29.8656C91.1489 29.8656 91.3779 29.7629 91.5167 29.5574C91.6555 29.3484 91.7682 29.0157 91.855 28.5594C91.9139 28.2633 91.9625 27.9446 92.0007 27.6032C92.0388 27.2618 92.0718 26.8717 92.0996 26.4328C92.1273 25.9904 92.1533 25.4732 92.1776 24.881H95.8935V29.8656H96.4347V31.778H95.6957V30.524H91.5635V31.778H90.8297ZM92.1256 29.8656H95.1337V25.5393H92.8854C92.875 25.8041 92.8594 26.0845 92.8386 26.3806C92.8212 26.6766 92.7987 26.9727 92.7709 27.2688C92.7466 27.5649 92.7171 27.8436 92.6824 28.1048C92.6512 28.3626 92.6131 28.589 92.568 28.7841C92.5159 29.0349 92.4587 29.2491 92.3962 29.4267C92.3372 29.6044 92.247 29.7507 92.1256 29.8656Z" fill="#212137"/>
<path d="M97.4718 30.524V24.881H99.7877C99.9056 24.881 100.048 24.888 100.214 24.9019C100.384 24.9158 100.542 24.942 100.688 24.9803C101.004 25.0639 101.257 25.2346 101.448 25.4923C101.642 25.7501 101.739 26.0601 101.739 26.4224C101.739 26.6244 101.708 26.8055 101.646 26.9658C101.587 27.1225 101.502 27.2584 101.391 27.3733C101.339 27.4325 101.281 27.4848 101.219 27.5301C101.156 27.5719 101.096 27.6067 101.037 27.6346C101.148 27.6555 101.267 27.7042 101.396 27.7809C101.597 27.8993 101.75 28.0595 101.854 28.2616C101.958 28.4601 102.01 28.7022 102.01 28.9878C102.01 29.3745 101.918 29.6897 101.734 29.9336C101.55 30.1774 101.304 30.3446 100.995 30.4351C100.856 30.4735 100.705 30.4978 100.542 30.5083C100.383 30.5187 100.232 30.524 100.09 30.524H97.4718ZM98.242 29.8709H100.053C100.126 29.8709 100.218 29.8656 100.329 29.8552C100.44 29.8412 100.539 29.8238 100.626 29.8029C100.83 29.7507 100.979 29.6462 101.073 29.4894C101.17 29.3292 101.219 29.155 101.219 28.9669C101.219 28.7196 101.146 28.5176 101 28.3608C100.858 28.2006 100.667 28.1031 100.428 28.0682C100.348 28.0508 100.265 28.0404 100.178 28.0369C100.091 28.0334 100.013 28.0317 99.9438 28.0317H98.242V29.8709ZM98.242 27.3733H99.8137C99.9039 27.3733 100.005 27.3681 100.116 27.3576C100.23 27.3437 100.329 27.3211 100.412 27.2897C100.593 27.227 100.724 27.119 100.808 26.9658C100.894 26.8125 100.938 26.6453 100.938 26.4642C100.938 26.2656 100.891 26.0914 100.797 25.9417C100.707 25.7919 100.57 25.6874 100.386 25.6282C100.261 25.5829 100.126 25.5568 99.9802 25.5498C99.838 25.5428 99.7478 25.5393 99.7096 25.5393H98.242V27.3733Z" fill="#212137"/>
<path d="M107.512 24.881V30.524H106.768V26.1298L103.687 30.524H103.042V24.881H103.786V29.2386L106.872 24.881H107.512Z" fill="#212137"/>
<path d="M108.349 30.524L110.722 27.7025L108.448 24.881H109.311L111.528 27.6659V24.881H112.236V27.6659L114.453 24.881H115.312L113.038 27.7025L115.411 30.524H114.521L112.236 27.7391V30.524H111.528V27.7391L109.239 30.524H108.349Z" fill="#212137"/>
<path d="M120.706 24.881V30.524H119.962V26.1298L116.881 30.524H116.236V24.881H116.98V29.2386L120.066 24.881H120.706Z" fill="#212137"/>
<path d="M122.162 30.524V24.881H122.843L125.034 29.4999L127.231 24.881H127.907V30.524H127.168V26.5216L125.279 30.524H124.795L122.906 26.5216V30.524H122.162Z" fill="#212137"/>
<path d="M131.71 30.6807C131.152 30.6807 130.675 30.5536 130.279 30.2993C129.884 30.045 129.58 29.6932 129.369 29.2439C129.157 28.7945 129.051 28.279 129.051 27.6973C129.051 27.1051 129.159 26.5861 129.374 26.1402C129.589 25.6943 129.894 25.3478 130.29 25.1004C130.689 24.8496 131.162 24.7242 131.71 24.7242C132.273 24.7242 132.751 24.8514 133.147 25.1057C133.546 25.3565 133.849 25.7065 134.058 26.1559C134.269 26.6018 134.375 27.1155 134.375 27.6973C134.375 28.2894 134.269 28.8102 134.058 29.2595C133.846 29.7054 133.541 30.0537 133.142 30.3045C132.743 30.5553 132.266 30.6807 131.71 30.6807ZM131.71 29.944C132.335 29.944 132.8 29.7367 133.105 29.3222C133.411 28.9042 133.563 28.3626 133.563 27.6973C133.563 27.0145 133.409 26.4711 133.1 26.0671C132.795 25.663 132.332 25.461 131.71 25.461C131.291 25.461 130.944 25.5568 130.67 25.7483C130.399 25.9364 130.196 26.1994 130.061 26.5373C129.929 26.8717 129.863 27.2584 129.863 27.6973C129.863 28.3765 130.019 28.9216 130.331 29.3327C130.644 29.7402 131.103 29.944 131.71 29.944Z" fill="#212137"/>
<path d="M137.855 30.6807C137.289 30.6807 136.81 30.5536 136.418 30.2993C136.026 30.045 135.728 29.6949 135.523 29.2491C135.322 28.7997 135.218 28.2842 135.211 27.7025C135.218 27.1103 135.325 26.5913 135.534 26.1454C135.742 25.6961 136.042 25.3478 136.434 25.1004C136.826 24.8496 137.301 24.7242 137.86 24.7242C138.429 24.7242 138.923 24.8636 139.343 25.1422C139.766 25.4209 140.056 25.8023 140.212 26.2865L139.463 26.5269C139.331 26.189 139.121 25.9277 138.833 25.7431C138.549 25.555 138.222 25.461 137.855 25.461C137.442 25.461 137.1 25.5568 136.829 25.7483C136.559 25.9364 136.358 26.1994 136.226 26.5373C136.094 26.8752 136.026 27.2636 136.023 27.7025C136.03 28.3782 136.186 28.9216 136.491 29.3327C136.796 29.7402 137.251 29.944 137.855 29.944C138.236 29.944 138.561 29.8569 138.828 29.6828C139.098 29.5051 139.303 29.2473 139.442 28.9095L140.212 29.1394C140.004 29.641 139.699 30.0241 139.296 30.2888C138.894 30.5501 138.413 30.6807 137.855 30.6807Z" fill="#212137"/>
<path d="M142.679 30.524V25.5916H140.686V24.881H145.437V25.5916H143.444V30.524H142.679Z" fill="#212137"/>
<path d="M150.895 24.881V30.524H150.151V26.1298L147.07 30.524H146.425V24.881H147.169V29.2386L150.255 24.881H150.895Z" fill="#212137"/>
<path fill-rule="evenodd" clip-rule="evenodd" d="M3.89804 0C1.74521 0 0 1.74521 0 3.89804V17.5412C0 19.694 1.74521 21.4392 3.89804 21.4392C6.05087 21.4392 7.79608 19.694 7.79608 17.5412V3.89804C7.79608 1.74521 6.05087 0 3.89804 0ZM9.09542 3.89805C9.09542 1.74522 10.8406 6.79493e-06 12.9935 6.79493e-06C15.1463 6.79493e-06 16.8915 1.74522 16.8915 3.89805V25.9869C16.8915 28.1398 15.1463 29.885 12.9935 29.885C10.8406 29.885 9.09542 28.1398 9.09542 25.9869V3.89805ZM18.1908 12.3438C18.1908 10.191 19.9361 8.44576 22.0889 8.44576C24.2417 8.44576 25.9869 10.191 25.9869 12.3438V25.9869C25.9869 28.1398 24.2417 29.885 22.0889 29.885C19.9361 29.885 18.1908 28.1398 18.1908 25.9869V12.3438Z" fill="#AA0001"/>
</svg>
